<svg xmlns="http://www.w3.org/2000/svg" version="1.1" xmlns:xlink="http://www.w3.org/1999/xlink" xmlns:svgjs="http://svgjs.dev/svgjs" viewBox="0 0 800 800" opacity="1" width="800" height="800"><g stroke-width="0.5" stroke="hsla(261, 2%, 65%, 1.00)" fill="none"><rect width="50" height="53.333333333333336" x="0" y="0"></rect><rect width="50" height="53.333333333333336" x="50" y="0"></rect><rect width="50" height="53.333333333333336" x="100" y="0"></rect><rect width="50" height="53.333333333333336" x="150" y="0"></rect><rect width="50" height="53.333333333333336" x="200" y="0"></rect><rect width="50" height="53.333333333333336" x="250" y="0"></rect><rect width="50" height="53.333333333333336" x="300" y="0"></rect><rect width="50" height="53.333333333333336" x="350" y="0"></rect><rect width="50" height="53.333333333333336" x="400" y="0"></rect><rect width="50" height="53.333333333333336" x="450" y="0"></rect><rect width="50" height="53.333333333333336" x="500" y="0"></rect><rect width="50" height="53.333333333333336" x="550" y="0"></rect><rect width="50" height="53.333333333333336" x="600" y="0"></rect><rect width="50" height="53.333333333333336" x="650" y="0"></rect><rect width="50" height="53.333333333333336" x="700" y="0"></rect><rect width="50" height="53.333333333333336" x="750" y="0"></rect><rect width="50" height="53.333333333333336" x="800" y="0"></rect><rect width="50" height="53.333333333333336" x="0" y="53.333333333333336"></rect><rect width="50" height="53.333333333333336" x="50" y="53.333333333333336"></rect><rect width="50" height="53.333333333333336" x="100" y="53.333333333333336"></rect><rect width="50" height="53.333333333333336" x="150" y="53.333333333333336"></rect><rect width="50" height="53.333333333333336" x="200" y="53.333333333333336"></rect><rect width="50" height="53.333333333333336" x="250" y="53.333333333333336"></rect><rect width="50" height="53.333333333333336" x="300" y="53.333333333333336"></rect><rect width="50" height="53.333333333333336" x="350" y="53.333333333333336"></rect><rect width="50" height="53.333333333333336" x="400" y="53.333333333333336"></rect><rect width="50" height="53.333333333333336" x="450" y="53.333333333333336"></rect><rect width="50" height="53.333333333333336" x="500" y="53.333333333333336"></rect><rect width="50" height="53.333333333333336" x="550" y="53.333333333333336"></rect><rect width="50" height="53.333333333333336" x="600" y="53.333333333333336"></rect><rect width="50" height="53.333333333333336" x="650" y="53.333333333333336"></rect><rect width="50" height="53.333333333333336" x="700" y="53.333333333333336"></rect><rect width="50" height="53.333333333333336" x="750" y="53.333333333333336"></rect><rect width="50" height="53.333333333333336" x="800" y="53.333333333333336"></rect><rect width="50" height="53.333333333333336" x="0" y="106.66666666666667"></rect><rect width="50" height="53.333333333333336" x="50" y="106.66666666666667"></rect><rect width="50" height="53.333333333333336" x="100" y="106.66666666666667"></rect><rect width="50" height="53.333333333333336" x="150" y="106.66666666666667"></rect><rect width="50" height="53.333333333333336" x="200" y="106.66666666666667"></rect><rect width="50" height="53.333333333333336" x="250" y="106.66666666666667"></rect><rect width="50" height="53.333333333333336" x="300" y="106.66666666666667"></rect><rect width="50" height="53.333333333333336" x="350" y="106.66666666666667"></rect><rect width="50" height="53.333333333333336" x="400" y="106.66666666666667"></rect><rect width="50" height="53.333333333333336" x="450" y="106.66666666666667"></rect><rect width="50" height="53.333333333333336" x="500" y="106.66666666666667"></rect><rect width="50" height="53.333333333333336" x="550" y="106.66666666666667"></rect><rect width="50" height="53.333333333333336" x="600" y="106.66666666666667"></rect><rect width="50" height="53.333333333333336" x="650" y="106.66666666666667"></rect><rect width="50" height="53.333333333333336" x="700" y="106.66666666666667"></rect><rect width="50" height="53.333333333333336" x="750" y="106.66666666666667"></rect><rect width="50" height="53.333333333333336" x="800" y="106.66666666666667"></rect><rect width="50" height="53.333333333333336" x="0" y="160"></rect><rect width="50" height="53.333333333333336" x="50" y="160"></rect><rect width="50" height="53.333333333333336" x="100" y="160"></rect><rect width="50" height="53.333333333333336" x="150" y="160"></rect><rect width="50" height="53.333333333333336" x="200" y="160"></rect><rect width="50" height="53.333333333333336" x="250" y="160"></rect><rect width="50" height="53.333333333333336" x="300" y="160"></rect><rect width="50" height="53.333333333333336" x="350" y="160"></rect><rect width="50" height="53.333333333333336" x="400" y="160"></rect><rect width="50" height="53.333333333333336" x="450" y="160"></rect><rect width="50" height="53.333333333333336" x="500" y="160"></rect><rect width="50" height="53.333333333333336" x="550" y="160"></rect><rect width="50" height="53.333333333333336" x="600" y="160"></rect><rect width="50" height="53.333333333333336" x="650" y="160"></rect><rect width="50" height="53.333333333333336" x="700" y="160"></rect><rect width="50" height="53.333333333333336" x="750" y="160"></rect><rect width="50" height="53.333333333333336" x="800" y="160"></rect><rect width="50" height="53.333333333333336" x="0" y="213.33333333333334"></rect><rect width="50" height="53.333333333333336" x="50" y="213.33333333333334"></rect><rect width="50" height="53.333333333333336" x="100" y="213.33333333333334"></rect><rect width="50" height="53.333333333333336" x="150" y="213.33333333333334"></rect><rect width="50" height="53.333333333333336" x="200" y="213.33333333333334"></rect><rect width="50" height="53.333333333333336" x="250" y="213.33333333333334"></rect><rect width="50" height="53.333333333333336" x="300" y="213.33333333333334"></rect><rect width="50" height="53.333333333333336" x="350" y="213.33333333333334"></rect><rect width="50" height="53.333333333333336" x="400" y="213.33333333333334"></rect><rect width="50" height="53.333333333333336" x="450" y="213.33333333333334"></rect><rect width="50" height="53.333333333333336" x="500" y="213.33333333333334"></rect><rect width="50" height="53.333333333333336" x="550" y="213.33333333333334"></rect><rect width="50" height="53.333333333333336" x="600" y="213.33333333333334"></rect><rect width="50" height="53.333333333333336" x="650" y="213.33333333333334"></rect><rect width="50" height="53.333333333333336" x="700" y="213.33333333333334"></rect><rect width="50" height="53.333333333333336" x="750" y="213.33333333333334"></rect><rect width="50" height="53.333333333333336" x="800" y="213.33333333333334"></rect><rect width="50" height="53.333333333333336" x="0" y="266.6666666666667"></rect><rect width="50" height="53.333333333333336" x="50" y="266.6666666666667"></rect><rect width="50" height="53.333333333333336" x="100" y="266.6666666666667"></rect><rect width="50" height="53.333333333333336" x="150" y="266.6666666666667"></rect><rect width="50" height="53.333333333333336" x="200" y="266.6666666666667"></rect><rect width="50" height="53.333333333333336" x="250" y="266.6666666666667"></rect><rect width="50" height="53.333333333333336" x="300" y="266.6666666666667"></rect><rect width="50" height="53.333333333333336" x="350" y="266.6666666666667"></rect><rect width="50" height="53.333333333333336" x="400" y="266.6666666666667"></rect><rect width="50" height="53.333333333333336" x="450" y="266.6666666666667"></rect><rect width="50" height="53.333333333333336" x="500" y="266.6666666666667"></rect><rect width="50" height="53.333333333333336" x="550" y="266.6666666666667"></rect><rect width="50" height="53.333333333333336" x="600" y="266.6666666666667"></rect><rect width="50" height="53.333333333333336" x="650" y="266.6666666666667"></rect><rect width="50" height="53.333333333333336" x="700" y="266.6666666666667"></rect><rect width="50" height="53.333333333333336" x="750" y="266.6666666666667"></rect><rect width="50" height="53.333333333333336" x="800" y="266.6666666666667"></rect><rect width="50" height="53.333333333333336" x="0" y="320"></rect><rect width="50" height="53.333333333333336" x="50" y="320"></rect><rect width="50" height="53.333333333333336" x="100" y="320"></rect><rect width="50" height="53.333333333333336" x="150" y="320"></rect><rect width="50" height="53.333333333333336" x="200" y="320"></rect><rect width="50" height="53.333333333333336" x="250" y="320"></rect><rect width="50" height="53.333333333333336" x="300" y="320"></rect><rect width="50" height="53.333333333333336" x="350" y="320"></rect><rect width="50" height="53.333333333333336" x="400" y="320"></rect><rect width="50" height="53.333333333333336" x="450" y="320"></rect><rect width="50" height="53.333333333333336" x="500" y="320"></rect><rect width="50" height="53.333333333333336" x="550" y="320"></rect><rect width="50" height="53.333333333333336" x="600" y="320"></rect><rect width="50" height="53.333333333333336" x="650" y="320"></rect><rect width="50" height="53.333333333333336" x="700" y="320"></rect><rect width="50" height="53.333333333333336" x="750" y="320"></rect><rect width="50" height="53.333333333333336" x="800" y="320"></rect><rect width="50" height="53.333333333333336" x="0" y="373.3333333333333"></rect><rect width="50" height="53.333333333333336" x="50" y="373.3333333333333"></rect><rect width="50" height="53.333333333333336" x="100" y="373.3333333333333"></rect><rect width="50" height="53.333333333333336" x="150" y="373.3333333333333"></rect><rect width="50" height="53.333333333333336" x="200" y="373.3333333333333"></rect><rect width="50" height="53.333333333333336" x="250" y="373.3333333333333"></rect><rect width="50" height="53.333333333333336" x="300" y="373.3333333333333"></rect><rect width="50" height="53.333333333333336" x="350" y="373.3333333333333"></rect><rect width="50" height="53.333333333333336" x="400" y="373.3333333333333"></rect><rect width="50" height="53.333333333333336" x="450" y="373.3333333333333"></rect><rect width="50" height="53.333333333333336" x="500" y="373.3333333333333"></rect><rect width="50" height="53.333333333333336" x="550" y="373.3333333333333"></rect><rect width="50" height="53.333333333333336" x="600" y="373.3333333333333"></rect><rect width="50" height="53.333333333333336" x="650" y="373.3333333333333"></rect><rect width="50" height="53.333333333333336" x="700" y="373.3333333333333"></rect><rect width="50" height="53.333333333333336" x="750" y="373.3333333333333"></rect><rect width="50" height="53.333333333333336" x="800" y="373.3333333333333"></rect><rect width="50" height="53.333333333333336" x="0" y="426.66666666666663"></rect><rect width="50" height="53.333333333333336" x="50" y="426.66666666666663"></rect><rect width="50" height="53.333333333333336" x="100" y="426.66666666666663"></rect><rect width="50" height="53.333333333333336" x="150" y="426.66666666666663"></rect><rect width="50" height="53.333333333333336" x="200" y="426.66666666666663"></rect><rect width="50" height="53.333333333333336" x="250" y="426.66666666666663"></rect><rect width="50" height="53.333333333333336" x="300" y="426.66666666666663"></rect><rect width="50" height="53.333333333333336" x="350" y="426.66666666666663"></rect><rect width="50" height="53.333333333333336" x="400" y="426.66666666666663"></rect><rect width="50" height="53.333333333333336" x="450" y="426.66666666666663"></rect><rect width="50" height="53.333333333333336" x="500" y="426.66666666666663"></rect><rect width="50" height="53.333333333333336" x="550" y="426.66666666666663"></rect><rect width="50" height="53.333333333333336" x="600" y="426.66666666666663"></rect><rect width="50" height="53.333333333333336" x="650" y="426.66666666666663"></rect><rect width="50" height="53.333333333333336" x="700" y="426.66666666666663"></rect><rect width="50" height="53.333333333333336" x="750" y="426.66666666666663"></rect><rect width="50" height="53.333333333333336" x="800" y="426.66666666666663"></rect><rect width="50" height="53.333333333333336" x="0" y="479.99999999999994"></rect><rect width="50" height="53.333333333333336" x="50" y="479.99999999999994"></rect><rect width="50" height="53.333333333333336" x="100" y="479.99999999999994"></rect><rect width="50" height="53.333333333333336" x="150" y="479.99999999999994"></rect><rect width="50" height="53.333333333333336" x="200" y="479.99999999999994"></rect><rect width="50" height="53.333333333333336" x="250" y="479.99999999999994"></rect><rect width="50" height="53.333333333333336" x="300" y="479.99999999999994"></rect><rect width="50" height="53.333333333333336" x="350" y="479.99999999999994"></rect><rect width="50" height="53.333333333333336" x="400" y="479.99999999999994"></rect><rect width="50" height="53.333333333333336" x="450" y="479.99999999999994"></rect><rect width="50" height="53.333333333333336" x="500" y="479.99999999999994"></rect><rect width="50" height="53.333333333333336" x="550" y="479.99999999999994"></rect><rect width="50" height="53.333333333333336" x="600" y="479.99999999999994"></rect><rect width="50" height="53.333333333333336" x="650" y="479.99999999999994"></rect><rect width="50" height="53.333333333333336" x="700" y="479.99999999999994"></rect><rect width="50" height="53.333333333333336" x="750" y="479.99999999999994"></rect><rect width="50" height="53.333333333333336" x="800" y="479.99999999999994"></rect><rect width="50" height="53.333333333333336" x="0" y="533.3333333333333"></rect><rect width="50" height="53.333333333333336" x="50" y="533.3333333333333"></rect><rect width="50" height="53.333333333333336" x="100" y="533.3333333333333"></rect><rect width="50" height="53.333333333333336" x="150" y="533.3333333333333"></rect><rect width="50" height="53.333333333333336" x="200" y="533.3333333333333"></rect><rect width="50" height="53.333333333333336" x="250" y="533.3333333333333"></rect><rect width="50" height="53.333333333333336" x="300" y="533.3333333333333"></rect><rect width="50" height="53.333333333333336" x="350" y="533.3333333333333"></rect><rect width="50" height="53.333333333333336" x="400" y="533.3333333333333"></rect><rect width="50" height="53.333333333333336" x="450" y="533.3333333333333"></rect><rect width="50" height="53.333333333333336" x="500" y="533.3333333333333"></rect><rect width="50" height="53.333333333333336" x="550" y="533.3333333333333"></rect><rect width="50" height="53.333333333333336" x="600" y="533.3333333333333"></rect><rect width="50" height="53.333333333333336" x="650" y="533.3333333333333"></rect><rect width="50" height="53.333333333333336" x="700" y="533.3333333333333"></rect><rect width="50" height="53.333333333333336" x="750" y="533.3333333333333"></rect><rect width="50" height="53.333333333333336" x="800" y="533.3333333333333"></rect><rect width="50" height="53.333333333333336" x="0" y="586.6666666666666"></rect><rect width="50" height="53.333333333333336" x="50" y="586.6666666666666"></rect><rect width="50" height="53.333333333333336" x="100" y="586.6666666666666"></rect><rect width="50" height="53.333333333333336" x="150" y="586.6666666666666"></rect><rect width="50" height="53.333333333333336" x="200" y="586.6666666666666"></rect><rect width="50" height="53.333333333333336" x="250" y="586.6666666666666"></rect><rect width="50" height="53.333333333333336" x="300" y="586.6666666666666"></rect><rect width="50" height="53.333333333333336" x="350" y="586.6666666666666"></rect><rect width="50" height="53.333333333333336" x="400" y="586.6666666666666"></rect><rect width="50" height="53.333333333333336" x="450" y="586.6666666666666"></rect><rect width="50" height="53.333333333333336" x="500" y="586.6666666666666"></rect><rect width="50" height="53.333333333333336" x="550" y="586.6666666666666"></rect><rect width="50" height="53.333333333333336" x="600" y="586.6666666666666"></rect><rect width="50" height="53.333333333333336" x="650" y="586.6666666666666"></rect><rect width="50" height="53.333333333333336" x="700" y="586.6666666666666"></rect><rect width="50" height="53.333333333333336" x="750" y="586.6666666666666"></rect><rect width="50" height="53.333333333333336" x="800" y="586.6666666666666"></rect><rect width="50" height="53.333333333333336" x="0" y="640"></rect><rect width="50" height="53.333333333333336" x="50" y="640"></rect><rect width="50" height="53.333333333333336" x="100" y="640"></rect><rect width="50" height="53.333333333333336" x="150" y="640"></rect><rect width="50" height="53.333333333333336" x="200" y="640"></rect><rect width="50" height="53.333333333333336" x="250" y="640"></rect><rect width="50" height="53.333333333333336" x="300" y="640"></rect><rect width="50" height="53.333333333333336" x="350" y="640"></rect><rect width="50" height="53.333333333333336" x="400" y="640"></rect><rect width="50" height="53.333333333333336" x="450" y="640"></rect><rect width="50" height="53.333333333333336" x="500" y="640"></rect><rect width="50" height="53.333333333333336" x="550" y="640"></rect><rect width="50" height="53.333333333333336" x="600" y="640"></rect><rect width="50" height="53.333333333333336" x="650" y="640"></rect><rect width="50" height="53.333333333333336" x="700" y="640"></rect><rect width="50" height="53.333333333333336" x="750" y="640"></rect><rect width="50" height="53.333333333333336" x="800" y="640"></rect><rect width="50" height="53.333333333333336" x="0" y="693.3333333333334"></rect><rect width="50" height="53.333333333333336" x="50" y="693.3333333333334"></rect><rect width="50" height="53.333333333333336" x="100" y="693.3333333333334"></rect><rect width="50" height="53.333333333333336" x="150" y="693.3333333333334"></rect><rect width="50" height="53.333333333333336" x="200" y="693.3333333333334"></rect><rect width="50" height="53.333333333333336" x="250" y="693.3333333333334"></rect><rect width="50" height="53.333333333333336" x="300" y="693.3333333333334"></rect><rect width="50" height="53.333333333333336" x="350" y="693.3333333333334"></rect><rect width="50" height="53.333333333333336" x="400" y="693.3333333333334"></rect><rect width="50" height="53.333333333333336" x="450" y="693.3333333333334"></rect><rect width="50" height="53.333333333333336" x="500" y="693.3333333333334"></rect><rect width="50" height="53.333333333333336" x="550" y="693.3333333333334"></rect><rect width="50" height="53.333333333333336" x="600" y="693.3333333333334"></rect><rect width="50" height="53.333333333333336" x="650" y="693.3333333333334"></rect><rect width="50" height="53.333333333333336" x="700" y="693.3333333333334"></rect><rect width="50" height="53.333333333333336" x="750" y="693.3333333333334"></rect><rect width="50" height="53.333333333333336" x="800" y="693.3333333333334"></rect><rect width="50" height="53.333333333333336" x="0" y="746.6666666666667"></rect><rect width="50" height="53.333333333333336" x="50" y="746.6666666666667"></rect><rect width="50" height="53.333333333333336" x="100" y="746.6666666666667"></rect><rect width="50" height="53.333333333333336" x="150" y="746.6666666666667"></rect><rect width="50" height="53.333333333333336" x="200" y="746.6666666666667"></rect><rect width="50" height="53.333333333333336" x="250" y="746.6666666666667"></rect><rect width="50" height="53.333333333333336" x="300" y="746.6666666666667"></rect><rect width="50" height="53.333333333333336" x="350" y="746.6666666666667"></rect><rect width="50" height="53.333333333333336" x="400" y="746.6666666666667"></rect><rect width="50" height="53.333333333333336" x="450" y="746.6666666666667"></rect><rect width="50" height="53.333333333333336" x="500" y="746.6666666666667"></rect><rect width="50" height="53.333333333333336" x="550" y="746.6666666666667"></rect><rect width="50" height="53.333333333333336" x="600" y="746.6666666666667"></rect><rect width="50" height="53.333333333333336" x="650" y="746.6666666666667"></rect><rect width="50" height="53.333333333333336" x="700" y="746.6666666666667"></rect><rect width="50" height="53.333333333333336" x="750" y="746.6666666666667"></rect><rect width="50" height="53.333333333333336" x="800" y="746.6666666666667"></rect><rect width="50" height="53.333333333333336" x="0" y="800.0000000000001"></rect><rect width="50" height="53.333333333333336" x="50" y="800.0000000000001"></rect><rect width="50" height="53.333333333333336" x="100" y="800.0000000000001"></rect><rect width="50" height="53.333333333333336" x="150" y="800.0000000000001"></rect><rect width="50" height="53.333333333333336" x="200" y="800.0000000000001"></rect><rect width="50" height="53.333333333333336" x="250" y="800.0000000000001"></rect><rect width="50" height="53.333333333333336" x="300" y="800.0000000000001"></rect><rect width="50" height="53.333333333333336" x="350" y="800.0000000000001"></rect><rect width="50" height="53.333333333333336" x="400" y="800.0000000000001"></rect><rect width="50" height="53.333333333333336" x="450" y="800.0000000000001"></rect><rect width="50" height="53.333333333333336" x="500" y="800.0000000000001"></rect><rect width="50" height="53.333333333333336" x="550" y="800.0000000000001"></rect><rect width="50" height="53.333333333333336" x="600" y="800.0000000000001"></rect><rect width="50" height="53.333333333333336" x="650" y="800.0000000000001"></rect><rect width="50" height="53.333333333333336" x="700" y="800.0000000000001"></rect><rect width="50" height="53.333333333333336" x="750" y="800.0000000000001"></rect><rect width="50" height="53.333333333333336" x="800" y="800.0000000000001"></rect></g></svg>